<svg width="603" height="192" viewBox="0 0 603 192" fill="none" xmlns="http://www.w3.org/2000/svg">
<rect x="16" y="76" width="100" height="100" rx="12" fill="url(#paint0_linear)"/>
<path d="M156.224 76.2H199.856C209.648 76.2 217.52 78.648 223.472 83.544C229.52 88.344 232.544 94.776 232.544 102.84C232.544 107.64 231.296 111.96 228.8 115.8C226.304 119.544 222.896 122.472 218.576 124.584C224.048 126.696 228.368 129.816 231.536 133.944C234.8 138.072 236.432 142.872 236.432 148.344C236.432 156.984 233.264 163.944 226.928 169.224C220.592 174.408 212.192 177 201.728 177H156.224V76.2ZM198.992 89.016H171.344V118.968H198.992C204.656 118.968 209.168 117.624 212.528 114.936C215.888 112.248 217.568 108.6 217.568 103.992C217.568 99.384 215.888 95.736 212.528 93.048C209.168 90.36 204.656 89.016 198.992 89.016ZM200.576 164.184C206.816 164.184 211.808 162.696 215.552 159.72C219.296 156.648 221.168 152.616 221.168 147.624C221.168 142.728 219.296 138.744 215.552 135.672C211.808 132.6 206.816 131.064 200.576 131.064H171.344V164.184H200.576ZM274.289 178.296C266.321 178.296 259.841 176.232 254.849 172.104C249.857 167.976 247.361 162.6 247.361 155.976C247.361 149.064 250.001 143.64 255.281 139.704C260.561 135.672 267.809 133.656 277.025 133.656C280.577 133.656 284.033 134.04 287.393 134.808C290.753 135.48 293.969 136.44 297.041 137.688V129.912C297.041 124.728 295.505 120.84 292.433 118.248C289.361 115.656 284.945 114.36 279.185 114.36C275.825 114.36 272.321 114.888 268.673 115.944C265.025 116.904 260.945 118.44 256.433 120.552L251.105 109.752C256.577 107.16 261.761 105.288 266.657 104.136C271.553 102.888 276.401 102.264 281.201 102.264C290.705 102.264 298.049 104.568 303.233 109.176C308.513 113.688 311.153 120.12 311.153 128.472V177H297.041V170.664C293.777 173.256 290.273 175.176 286.529 176.424C282.785 177.672 278.705 178.296 274.289 178.296ZM261.185 155.688C261.185 159.24 262.673 162.12 265.649 164.328C268.721 166.536 272.705 167.64 277.601 167.64C281.441 167.64 284.993 167.064 288.257 165.912C291.521 164.76 294.449 163.032 297.041 160.728V148.056C294.257 146.52 291.329 145.416 288.257 144.744C285.185 143.976 281.825 143.592 278.177 143.592C272.993 143.592 268.865 144.696 265.793 146.904C262.721 149.112 261.185 152.04 261.185 155.688ZM327.746 177V103.704H342.146V113.064C344.354 109.512 347.186 106.824 350.642 105C354.098 103.08 357.986 102.12 362.306 102.12C363.842 102.12 365.186 102.216 366.338 102.408C367.49 102.6 368.594 102.888 369.65 103.272V116.232C368.306 115.752 366.914 115.368 365.474 115.08C364.034 114.792 362.594 114.648 361.154 114.648C356.93 114.648 353.138 115.8 349.778 118.104C346.514 120.312 343.97 123.624 342.146 128.04V177H327.746ZM391.25 158.856V115.8H375.698V103.704H391.25V84.984L405.506 81.528V103.704H427.106V115.8H405.506V155.544C405.506 159.288 406.322 161.928 407.954 163.464C409.682 165 412.466 165.768 416.306 165.768C418.322 165.768 420.098 165.672 421.634 165.48C423.266 165.192 424.994 164.712 426.818 164.04V176.136C424.898 176.808 422.642 177.336 420.05 177.72C417.554 178.104 415.25 178.296 413.138 178.296C406.034 178.296 400.61 176.664 396.866 173.4C393.122 170.04 391.25 165.192 391.25 158.856ZM499.672 168.648C495.448 171.912 491.032 174.36 486.424 175.992C481.816 177.528 476.776 178.296 471.304 178.296C465.928 178.296 460.888 177.336 456.184 175.416C451.48 173.4 447.4 170.712 443.944 167.352C440.488 163.992 437.752 160.008 435.736 155.4C433.816 150.696 432.856 145.656 432.856 140.28C432.856 135 433.816 130.056 435.736 125.448C437.656 120.84 440.248 116.856 443.512 113.496C446.776 110.136 450.664 107.496 455.176 105.576C459.688 103.56 464.488 102.552 469.576 102.552C474.568 102.552 479.224 103.56 483.544 105.576C487.96 107.496 491.704 110.184 494.776 113.64C497.944 117 500.44 121.032 502.264 125.736C504.088 130.44 505 135.48 505 140.856V145.032H447.112C448.072 151.08 450.856 156.12 455.464 160.152C460.072 164.088 465.544 166.056 471.88 166.056C475.432 166.056 478.84 165.48 482.104 164.328C485.368 163.176 488.152 161.592 490.456 159.576L499.672 168.648ZM469.288 114.648C463.816 114.648 459.016 116.472 454.888 120.12C450.856 123.768 448.312 128.472 447.256 134.232H490.744C489.688 128.664 487.144 124.008 483.112 120.264C479.176 116.52 474.568 114.648 469.288 114.648ZM518.715 177V103.704H533.115V113.064C535.323 109.512 538.155 106.824 541.611 105C545.067 103.08 548.955 102.12 553.275 102.12C554.811 102.12 556.155 102.216 557.307 102.408C558.459 102.6 559.563 102.888 560.619 103.272V116.232C559.275 115.752 557.883 115.368 556.443 115.08C555.003 114.792 553.563 114.648 552.123 114.648C547.899 114.648 544.107 115.8 540.747 118.104C537.483 120.312 534.939 123.624 533.115 128.04V177H518.715Z" fill="#0C2146"/>
<path d="M46.8954 101.6H70.5834C75.6234 101.6 79.7274 102.896 82.8954 105.488C86.0634 108.032 87.6474 111.344 87.6474 115.424C87.6474 117.632 87.0954 119.648 85.9914 121.472C84.8874 123.296 83.3754 124.808 81.4554 126.008C83.8554 127.16 85.7754 128.744 87.2154 130.76C88.6554 132.728 89.3754 134.936 89.3754 137.384C89.3754 141.752 87.7434 145.28 84.4794 147.968C81.2634 150.656 77.0154 152 71.7354 152H46.8954V101.6ZM69.9354 110.24H57.3354V122.192H69.9354C72.1434 122.192 73.9194 121.664 75.2634 120.608C76.6074 119.504 77.2794 118.04 77.2794 116.216C77.2794 114.392 76.6074 112.952 75.2634 111.896C73.9194 110.792 72.1434 110.24 69.9354 110.24ZM70.9434 143.36C73.3434 143.36 75.2634 142.784 76.7034 141.632C78.1434 140.432 78.8634 138.824 78.8634 136.808C78.8634 134.888 78.1434 133.328 76.7034 132.128C75.2634 130.928 73.3434 130.328 70.9434 130.328H57.3354V143.36H70.9434Z" fill="white"/>
<defs>
<linearGradient id="paint0_linear" x1="16" y1="126" x2="116" y2="126" gradientUnits="userSpaceOnUse">
<stop stop-color="#292DFF"/>
<stop offset="1" stop-color="#4C589E"/>
</linearGradient>
</defs>
</svg>
